<svg xmlns="http://www.w3.org/2000/svg" width="239.087" height="145.434" viewBox="0 0 239.087 145.434">
  <g id="그룹_597" data-name="그룹 597" transform="translate(-218.05 -159.954)">
    <path id="패스_1" data-name="패스 1" d="M417.816,240.28v23.987H352.054V240.28h-4.964V323.92h4.964V269.289h65.762V323.92h4.961V240.28Z" transform="translate(-127.031 -46.981)" fill="#5e35b1"/>
    <path id="패스_2" data-name="패스 2" d="M464.813,237.822c-18.206,0-33.018,12.811-33.018,27.048h.018V325.1h4.961V270.563H476.8v-5.023H436.774v-1.026h0c.422-11.893,12.808-22.945,28.105-22.945,15.561,0,28.175,9.865,28.175,22.033h4.726C497.777,249.363,483.019,237.822,464.813,237.822Z" transform="translate(-86.256 -48.148)" fill="#5e35b1"/>
    <g id="그룹_1" data-name="그룹 1" transform="translate(317.106 193.3)">
      <path id="패스_3" data-name="패스 3" d="M418.3,240.28v73.146h-4.963V240.28Z" transform="translate(-412.264 -240.28)" fill="#5e35b1"/>
      <path id="패스_4" data-name="패스 4" d="M419.455,295.484a3.422,3.422,0,1,1-3.423-3.423A3.422,3.422,0,0,1,419.455,295.484Z" transform="translate(-412.611 -215.397)" fill="#5e35b1"/>
    </g>
    <path id="패스_5" data-name="패스 5" d="M482.962,320.58V247.434h4.963V320.58Z" transform="translate(-61.642 -43.577)" fill="#5e35b1"/>
    <path id="패스_6" data-name="패스 6" d="M482.415,242.931a3.422,3.422,0,1,1,3.42,3.423A3.419,3.419,0,0,1,482.415,242.931Z" transform="translate(-61.905 -47.212)" fill="#5e35b1"/>
    <text id="FREE_WIFI_SERVICE" data-name="FREE WIFI SERVICE" transform="translate(218.05 300.388)" fill="#5e35b1" font-size="15" font-family="GmarketSansMedium, Gmarket Sans"><tspan x="0" y="0">FREE WIFI SERVICE</tspan></text>
    <g id="그룹_2" data-name="그룹 2" transform="translate(407.965 159.954)">
      <path id="패스_7" data-name="패스 7" d="M475.681,226.1a2.714,2.714,0,0,1-1.34-1.1,2.549,2.549,0,0,1,.859-3.57,33.887,33.887,0,0,1,8.763-3,35.127,35.127,0,0,1,17.379.518c9.129,2.767,16.366,9.547,21.509,20.15a2.549,2.549,0,0,1-1.245,3.453,2.714,2.714,0,0,1-3.541-1.279c-4.433-9.135-10.5-14.954-18.039-17.3a29.864,29.864,0,0,0-14.7-.486,30.365,30.365,0,0,0-7.336,2.416A2.689,2.689,0,0,1,475.681,226.1Z" transform="translate(-473.942 -217.588)" fill="#5e35b1"/>
      <path id="패스_8" data-name="패스 8" d="M480.227,231.31c.811-.425,8.17-4.08,15.826-1.581,5.219,1.7,9.536,5.928,12.835,12.562a2.713,2.713,0,0,0,3.552,1.247,2.548,2.548,0,0,0,1.211-3.466c-3.959-7.967-9.345-13.109-16-15.279-9.558-3.121-18.325,1.042-19.98,1.91a2.548,2.548,0,0,0-1.048,3.518,2.714,2.714,0,0,0,3.605,1.09Z" transform="translate(-472.813 -214.675)" fill="#5e35b1"/>
      <path id="패스_9" data-name="패스 9" d="M482.774,236.753a12.1,12.1,0,0,1,8.811-1.35c3.414.89,6.131,3.645,8.072,8.181a2.715,2.715,0,0,0,3.478,1.442,2.55,2.55,0,0,0,1.414-3.389c-3.275-7.644-8.156-10.343-11.676-11.265a17.186,17.186,0,0,0-13.44,2.28,2.555,2.555,0,0,0-.389,3.653,2.7,2.7,0,0,0,3.731.449Z" transform="translate(-471.776 -211.686)" fill="#5e35b1"/>
    </g>
  </g>
</svg>
