<svg xmlns="http://www.w3.org/2000/svg" width="128.86" height="79.222" viewBox="0 0 128.86 79.222">
  <g id="그룹_597" data-name="그룹 597" transform="translate(-218.05 -159.954)">
    <path id="패스_1" data-name="패스 1" d="M385.21,240.28v12.928H349.766V240.28h-2.675v45.08h2.675V255.915H385.21v29.444h2.674V240.28Z" transform="translate(-127.958 -62.354)" fill="#fff"/>
    <path id="패스_2" data-name="패스 2" d="M449.59,237.822c-9.813,0-17.8,6.9-17.8,14.578h.01v32.463h2.674V255.468H456.05v-2.707H434.478v-.553h0c.227-6.41,6.9-12.367,15.148-12.367,8.387,0,15.185,5.317,15.185,11.875h2.547C467.357,244.042,459.4,237.822,449.59,237.822Z" transform="translate(-145.033 -61.85)" fill="#fff"/>
    <g id="그룹_1" data-name="그룹 1" transform="translate(271.438 177.926)">
      <path id="패스_3" data-name="패스 3" d="M416.008,240.28V279.7h-2.675V240.28Z" transform="translate(-412.757 -240.28)" fill="#fff"/>
      <path id="패스_4" data-name="패스 4" d="M416.3,293.906a1.844,1.844,0,1,1-1.845-1.845A1.845,1.845,0,0,1,416.3,293.906Z" transform="translate(-412.611 -250.742)" fill="#fff"/>
    </g>
    <path id="패스_5" data-name="패스 5" d="M482.962,286.857V247.434h2.675v39.423Z" transform="translate(-155.356 -63.818)" fill="#fff"/>
    <path id="패스_6" data-name="패스 6" d="M482.415,241.354a1.844,1.844,0,1,1,1.843,1.845A1.843,1.843,0,0,1,482.415,241.354Z" transform="translate(-155.246 -62.123)" fill="#fff"/>
    <text id="FREE_WIFI_SERVICE" data-name="FREE WIFI SERVICE" transform="translate(218.05 236.176)" fill="#fff" font-size="9" font-family="GmarketSansMedium, Gmarket Sans"><tspan x="0" y="0">FREE WIFI SERVICE</tspan></text>
    <g id="그룹_2" data-name="그룹 2" transform="translate(320.408 159.954)">
      <path id="패스_7" data-name="패스 7" d="M474.88,222.173a1.463,1.463,0,0,1-.722-.591,1.374,1.374,0,0,1,.463-1.924,18.262,18.262,0,0,1,4.723-1.617,18.932,18.932,0,0,1,9.367.279c4.92,1.491,8.821,5.145,11.593,10.86a1.374,1.374,0,0,1-.671,1.861,1.463,1.463,0,0,1-1.909-.689c-2.389-4.923-5.662-8.059-9.722-9.323a16.1,16.1,0,0,0-7.921-.262,16.367,16.367,0,0,0-3.954,1.3A1.449,1.449,0,0,1,474.88,222.173Z" transform="translate(-473.942 -217.588)" fill="#fff"/>
      <path id="패스_8" data-name="패스 8" d="M478.413,227.779a11.9,11.9,0,0,1,8.529-.852c2.813.918,5.14,3.2,6.918,6.771a1.462,1.462,0,0,0,1.914.672,1.373,1.373,0,0,0,.653-1.868c-2.134-4.294-5.037-7.065-8.624-8.235a14.681,14.681,0,0,0-10.769,1.029,1.373,1.373,0,0,0-.565,1.9,1.463,1.463,0,0,0,1.943.587Z" transform="translate(-474.417 -218.813)" fill="#fff"/>
      <path id="패스_9" data-name="패스 9" d="M480.781,233.579a6.52,6.52,0,0,1,4.749-.728c1.84.48,3.3,1.965,4.35,4.41a1.464,1.464,0,0,0,1.874.777,1.374,1.374,0,0,0,.762-1.827c-1.765-4.12-4.4-5.575-6.293-6.072a9.263,9.263,0,0,0-7.244,1.229,1.377,1.377,0,0,0-.21,1.969,1.454,1.454,0,0,0,2.011.242Z" transform="translate(-474.853 -220.069)" fill="#fff"/>
    </g>
  </g>
</svg>
